# xmcd
#
# Track frame offsets:
#	150
#	16330
#	28112
#	45980
#	58820
#	73671
#	87806
#	100398
#	116334
#	130162
#	145292
#	160954
#	173921
#	188084
#	204872
#	220585
#	235664
#	248394
#	263010
#	276200
#
# Disc length: 3875 seconds
#
# Revision: 1
# Processed by: cddbd v1.5.1PL0 Copyright (c) Steve Scherf et al.
# Submitted via: EasyCDDAExtractor 6.2.0.3
#
DISCID=0c0f2114
DTITLE=Various Artist - Forró Bailão
DYEAR=1900
DGENRE=
TTITLE0=Rio Negro e Solimões - Amor Desencontrado
TTITLE1=Edson e Hudson - Cervejaria
TTITLE2=Guilherme e Santiago - Chovendo Estrelas
TTITLE3=Rio Negro e Solimões - De Bem Com A Vida
TTITLE4=Edson e Hudson - Ciúme Exagerado
TTITLE5=Guilherme e Santiago - Encontrei Uma Paixão
TTITLE6=Rio Negro e Solimões - Bate o Pé
TTITLE7=Edson e Hudson - Entra na Arena
TTITLE8=Guilherme e Santiago - Gosto de Mulher Meu Amigo de Pinga
TTITLE9=Rio Negro e Solimões - Movido Pela Paixão
TTITLE10=Edson e Hudson - O Bicho Vai Pegar
TTITLE11=Guilherme e Santiago - Não Adiantou Ir Pescar
TTITLE12=Rio Negro e Solimões - O Grito da Galera
TTITLE13=Edson e Hudson - Rabo de Saia
TTITLE14=Guilherme e Santiago - Se Essa Moda Pega
TTITLE15=Rio Negro e Solimões - Tendel
TTITLE16=Edson e Hudson - Sapateia Galera
TTITLE17=Guilherme e Santiago - O Som do Povo
TTITLE18=Rio Negro e Solimões - Na Sola da Bota
TTITLE19=Guilherme e Santiago - Vem Sambar Com a Gente
EXTD=
EXTT0=
EXTT1=
EXTT2=
EXTT3=
EXTT4=
EXTT5=
EXTT6=
EXTT7=
EXTT8=
EXTT9=
EXTT10=
EXTT11=
EXTT12=
EXTT13=
EXTT14=
EXTT15=
EXTT16=
EXTT17=
EXTT18=
EXTT19=
PLAYORDER=
